<?xml version="1.0" standalone="no"?>
<!DOCTYPE svg PUBLIC "-//W3C//DTD SVG 20010904//EN"
 "http://www.w3.org/TR/2001/REC-SVG-20010904/DTD/svg10.dtd">
<svg version="1.0" xmlns="http://www.w3.org/2000/svg"
 width="220.000000pt" height="150.000000pt" viewBox="0 0 220.000000 150.000000"
 preserveAspectRatio="xMidYMid meet">

<g transform="translate(0.000000,150.000000) scale(0.100000,-0.100000)"
fill="#000000" stroke="none">
<path d="M1036 1359 c-116 -17 -213 -68 -300 -155 -56 -56 -113 -165 -122
-236 -8 -57 -29 -68 -86 -43 -21 8 -56 15 -79 15 l-41 0 4 -97 c5 -108 36
-333 48 -346 4 -5 17 -4 27 2 62 32 273 33 386 1 l37 -11 0 -125 c0 -73 5
-134 11 -147 46 -89 171 -130 280 -92 87 31 119 84 119 198 0 40 5 78 11 84 8
8 8 13 0 17 -6 4 -11 20 -11 36 0 27 5 31 52 45 68 20 245 20 322 0 33 -9 60
-14 61 -13 13 14 81 455 72 465 -4 3 -13 0 -21 -6 -22 -18 -132 -39 -150 -29
-9 5 -16 21 -16 36 0 32 -34 119 -72 183 -36 62 -158 166 -203 175 -5 1 -37
11 -70 22 -73 25 -180 34 -259 21z m275 -63 c72 -29 174 -109 213 -167 14 -20
34 -67 46 -105 12 -38 25 -77 31 -86 12 -23 -21 -58 -55 -58 -13 0 -29 -7 -36
-15 -7 -8 -17 -15 -23 -15 -22 0 -223 -103 -249 -127 -25 -24 -27 -31 -27
-117 1 -50 -4 -104 -10 -119 -6 -16 -11 -30 -11 -32 0 -2 18 2 41 10 54 19 70
6 56 -45 -5 -19 -7 -67 -4 -105 8 -89 -11 -127 -80 -157 -81 -36 -215 -8 -244
51 -13 27 -26 271 -15 271 4 0 23 -7 43 -15 l36 -15 -6 82 c-4 46 -7 109 -7
141 l0 58 -72 34 c-40 19 -78 35 -85 35 -7 0 -13 4 -13 9 0 5 -14 13 -32 16
-17 4 -36 11 -42 17 -6 5 -20 15 -31 23 -20 14 -20 14 3 15 26 0 31 20 5 20
-16 1 -16 2 2 16 12 10 14 15 5 12 -8 -3 -21 -17 -28 -31 -15 -31 -56 -37 -67
-9 -17 39 12 163 53 232 24 39 162 160 182 160 9 0 20 4 26 9 50 48 284 52
395 7z m-809 -398 c25 -7 37 -16 34 -24 -4 -10 3 -12 24 -7 42 8 36 -6 -20
-49 -54 -42 -75 -48 -68 -20 3 10 -1 23 -9 30 -13 13 -19 82 -7 82 4 0 24 -5
46 -12z m1268 -3 c0 -8 5 -15 10 -15 16 0 12 -18 -11 -49 -12 -17 -20 -44 -21
-70 0 -25 -6 -45 -13 -47 -12 -5 -106 52 -113 69 -2 4 -11 7 -20 7 -23 0 -46
49 -27 56 7 3 23 0 35 -6 24 -13 42 -4 20 10 -24 15 -2 24 26 11 23 -10 26 -9
21 4 -4 8 -5 15 -4 15 1 0 20 7 42 15 51 18 55 18 55 0z m-1120 -52 c0 -10
-32 -43 -42 -43 -5 0 -31 -18 -59 -40 -54 -42 -64 -46 -74 -29 -15 23 108 119
152 119 13 0 23 -3 23 -7z m106 -37 c32 -13 93 -42 134 -63 l75 -39 6 -89 c4
-50 5 -91 4 -93 -7 -7 -47 -2 -130 18 -78 19 -107 21 -216 15 -144 -7 -139
-10 -139 85 l0 46 102 72 c56 40 102 72 103 72 1 0 28 -11 61 -24z m792 0 c15
-8 36 -23 46 -35 11 -12 24 -21 29 -21 6 0 34 -18 64 -40 l53 -41 -4 -56 c-2
-30 -8 -59 -13 -64 -5 -5 -46 -4 -96 2 -96 13 -231 1 -314 -27 -65 -22 -72
-12 -64 95 l6 83 65 35 c78 42 170 82 188 83 7 0 25 -6 40 -14z"/>
<path d="M1130 1265 c0 -8 5 -15 10 -15 6 0 10 7 10 15 0 8 -4 15 -10 15 -5 0
-10 -7 -10 -15z"/>
<path d="M1025 1251 c-9 -9 -15 -11 -15 -4 0 6 -9 9 -20 6 -11 -3 -20 -9 -20
-12 0 -17 14 -19 51 -6 22 8 46 12 54 9 11 -4 13 -2 9 9 -7 19 -39 18 -59 -2z"/>
<path d="M1100 1259 c0 -5 5 -7 10 -4 6 3 10 8 10 11 0 2 -4 4 -10 4 -5 0 -10
-5 -10 -11z"/>
<path d="M1164 1259 c-3 -5 1 -9 10 -9 8 0 21 -3 30 -6 10 -4 16 -1 16 7 0 16
-47 22 -56 8z"/>
<path d="M1265 1250 c-4 -6 -11 -8 -16 -5 -5 4 -9 2 -9 -4 0 -20 19 -21 30 -1
11 20 7 29 -5 10z"/>
<path d="M950 1231 c0 -5 5 -13 10 -16 6 -3 10 -2 10 4 0 5 -4 13 -10 16 -5 3
-10 2 -10 -4z"/>
<path d="M1320 1205 c-10 -12 -7 -15 15 -21 26 -7 45 6 45 31 -1 6 -5 2 -11
-7 -5 -10 -17 -18 -26 -18 -13 0 -13 3 -3 15 7 8 8 15 2 15 -5 0 -15 -7 -22
-15z"/>
<path d="M900 1195 c7 -9 15 -13 17 -11 7 7 -7 26 -19 26 -6 0 -6 -6 2 -15z"/>
<path d="M850 1175 c-10 -12 -10 -19 -2 -27 9 -9 12 -9 12 -1 0 7 10 15 21 18
17 6 19 9 8 16 -19 12 -25 11 -39 -6z"/>
<path d="M1003 1114 c-1 -19 3 -34 8 -34 11 0 12 57 1 64 -4 3 -9 -11 -9 -30z"/>
<path d="M1231 1136 c-1 -14 -7 -17 -28 -12 -28 5 -28 5 2 -9 30 -14 27 -19
-9 -15 -11 1 -15 -3 -12 -9 10 -16 46 -13 52 3 3 8 4 25 1 38 -3 17 -5 18 -6
4z"/>
<path d="M815 1130 c3 -5 13 -10 21 -10 8 0 12 5 9 10 -3 6 -13 10 -21 10 -8
0 -12 -4 -9 -10z"/>
<path d="M1080 1120 c-11 -7 -11 -10 -2 -10 7 0 10 -5 7 -10 -4 -6 -11 -8 -16
-5 -5 4 -9 1 -9 -4 0 -17 37 -13 44 5 13 34 4 42 -24 24z"/>
<path d="M1120 1118 c0 -5 7 -8 15 -8 8 0 15 -5 15 -11 0 -6 -7 -8 -17 -4 -14
5 -15 3 -6 -6 16 -16 43 -4 43 18 0 13 -8 18 -25 18 -14 0 -25 -3 -25 -7z"/>
<path d="M800 1111 c0 -6 5 -13 10 -16 6 -3 10 1 10 9 0 9 -4 16 -10 16 -5 0
-10 -4 -10 -9z"/>
<path d="M1430 1099 c0 -5 5 -7 10 -4 6 3 10 8 10 11 0 2 -4 4 -10 4 -5 0 -10
-5 -10 -11z"/>
<path d="M1455 1083 c-18 -14 -18 -15 -2 -9 10 3 25 6 33 6 9 0 12 5 9 10 -8
14 -16 12 -40 -7z"/>
<path d="M770 1081 c0 -5 7 -11 15 -15 8 -3 15 -1 15 3 0 5 -7 11 -15 15 -8 3
-15 1 -15 -3z"/>
<path d="M770 1025 c-7 -9 -8 -15 -2 -15 5 0 12 7 16 15 3 8 4 15 2 15 -2 0
-9 -7 -16 -15z"/>
<path d="M1510 1022 c0 -7 -7 -12 -15 -12 -8 0 -15 -4 -15 -10 0 -5 4 -10 9
-10 13 0 35 29 27 37 -3 3 -6 1 -6 -5z"/>
<path d="M1061 1007 c-22 -11 -23 -14 -16 -77 4 -36 9 -106 10 -156 2 -50 7
-133 11 -185 4 -52 7 -108 6 -125 -1 -25 3 -33 21 -38 54 -14 54 -14 62 112
15 256 32 459 38 469 9 15 -100 14 -132 0z m91 -34 c2 -10 1 -30 -3 -44 -4
-14 -7 -64 -8 -110 -1 -89 -19 -324 -27 -348 -15 -45 -22 32 -26 262 l-5 257
33 0 c23 0 34 -5 36 -17z"/>
<path d="M1360 998 c-12 -22 -12 -22 6 -6 10 10 15 20 12 24 -4 3 -12 -5 -18
-18z"/>
<path d="M870 1004 c0 -6 5 -15 11 -21 9 -9 8 -18 -5 -37 -22 -34 -20 -43 4
-21 11 10 20 25 20 34 -1 17 -30 62 -30 45z"/>
<path d="M740 979 c0 -6 -7 -8 -16 -5 -14 5 -15 4 -5 -8 21 -25 46 -25 46 1 0
12 -6 23 -12 23 -7 0 -13 -5 -13 -11z"/>
<path d="M1375 930 c-3 -5 -3 -15 1 -22 5 -7 3 -8 -6 -3 -9 6 -12 4 -8 -7 5
-12 -3 -15 -42 -15 -60 -1 -90 -10 -90 -29 0 -25 45 -39 88 -26 46 14 73 41
76 76 3 28 -8 43 -19 26z"/>
<path d="M850 884 c0 -25 60 -64 98 -64 44 0 57 8 67 38 7 23 6 23 -54 18 -34
-3 -67 -7 -73 -8 -7 -2 -12 4 -12 13 1 9 -5 16 -12 16 -8 0 -14 -6 -14 -13z"/>
<path d="M1080 390 c-11 -11 -20 -29 -20 -40 0 -11 -7 -23 -15 -26 -16 -6 -21
-44 -7 -44 5 0 19 -22 32 -50 13 -27 27 -50 32 -50 4 0 21 27 38 60 28 56 30
64 19 103 -19 70 -42 84 -79 47z m51 -59 c-5 -9 -11 -33 -15 -54 -4 -21 -11
-35 -17 -32 -10 7 -13 118 -2 128 12 13 43 -24 34 -42z"/>
<path d="M1475 780 c3 -5 12 -7 20 -3 21 7 19 13 -6 13 -11 0 -18 -4 -14 -10z"/>
<path d="M1385 744 c-61 -32 -65 -35 -37 -31 12 2 28 9 34 15 7 7 17 12 24 12
6 0 17 7 24 15 17 20 13 19 -45 -11z"/>
</g>
</svg>
