<?xml version="1.0" standalone="no"?>
<!DOCTYPE svg PUBLIC "-//W3C//DTD SVG 20010904//EN"
 "http://www.w3.org/TR/2001/REC-SVG-20010904/DTD/svg10.dtd">
<svg version="1.0" xmlns="http://www.w3.org/2000/svg"
 width="383.000000pt" height="393.000000pt" viewBox="0 0 383.000000 393.000000"
 preserveAspectRatio="xMidYMid meet">

<g transform="translate(0.000000,393.000000) scale(0.100000,-0.100000)"
fill="#000000" stroke="none">
<path d="M0 1965 l0 -1965 1915 0 1915 0 0 1965 0 1965 -1915 0 -1915 0 0
-1965z m2737 1563 c-3 -8 -6 -5 -6 6 -1 11 2 17 5 13 3 -3 4 -12 1 -19z m23
-51 c0 -14 -50 -87 -60 -87 -4 0 -6 11 -5 25 2 16 -2 25 -11 25 -26 0 -14 20
24 38 38 19 52 19 52 -1z m-1727 -7 c-6 -22 -15 -19 -19 5 -1 8 4 15 11 15 8
0 11 -7 8 -20z m1619 -2 c-7 -7 -12 -8 -12 -2 0 6 3 14 7 17 3 4 9 5 12 2 2
-3 -1 -11 -7 -17z m-1775 -100 c-3 -8 -6 -5 -6 6 -1 11 2 17 5 13 3 -3 4 -12
1 -19z m1659 -43 c-5 -27 -2 -39 14 -55 31 -31 55 -22 53 20 -1 33 -1 34 13
15 22 -30 28 -63 16 -88 -9 -18 -11 -19 -11 -4 -1 27 -26 20 -29 -8 -1 -15 3
-24 11 -22 6 1 11 -4 9 -11 -1 -8 6 -11 20 -7 13 2 35 8 51 11 17 4 27 2 27
-5 0 -11 42 -9 109 5 22 5 23 3 11 -11 -10 -12 -10 -19 -1 -28 15 -15 39 -1
69 43 l22 33 0 -39 c0 -54 -16 -108 -39 -128 -17 -16 -113 -40 -200 -51 -44
-6 -150 -42 -166 -56 -6 -6 0 -19 16 -35 25 -25 25 -26 11 -70 -13 -39 -32
-60 -32 -35 0 18 -35 17 -62 -3 -32 -22 -37 -46 -10 -47 10 0 6 -5 -11 -11
-42 -15 -76 2 -70 36 3 14 2 37 -1 52 -7 25 -8 24 -74 -43 -37 -38 -83 -76
-103 -85 -48 -23 -82 -56 -122 -120 -19 -29 -64 -81 -101 -115 -36 -35 -66
-67 -66 -73 0 -5 17 -8 38 -7 27 1 39 8 47 24 5 12 20 27 32 34 13 7 23 18 23
25 0 16 39 44 61 44 16 0 16 -2 1 -32 -9 -18 -15 -51 -14 -73 0 -21 -4 -45 -9
-52 -6 -6 -8 -17 -5 -22 4 -5 -8 -40 -25 -76 -30 -64 -31 -76 -14 -133 7 -21
6 -22 -20 -12 -15 6 -30 8 -33 6 -3 -3 3 -8 12 -12 9 -3 16 -11 16 -16 0 -6 7
-26 16 -45 12 -24 20 -31 27 -24 12 12 57 15 57 4 0 -5 -6 -26 -14 -47 -18
-52 -11 -73 35 -102 22 -13 39 -31 39 -39 0 -17 -40 -29 -75 -23 -28 6 -34
-12 -12 -31 13 -10 96 -22 154 -21 12 0 25 -5 28 -10 11 -17 71 -11 98 10 30
24 38 25 31 5 -3 -8 5 -25 20 -38 14 -13 26 -29 26 -36 0 -7 9 -9 25 -5 16 4
25 2 25 -6 0 -6 -9 -14 -20 -17 -28 -7 -14 -23 20 -23 33 0 49 -17 26 -26 -9
-3 -14 -10 -11 -14 3 -4 -2 -13 -10 -20 -14 -11 -13 -15 5 -27 19 -13 22 -12
40 9 l19 23 -6 -42 c-4 -31 -2 -43 7 -43 7 0 10 -7 6 -15 -6 -16 30 -55 50
-55 13 0 112 -74 131 -99 7 -9 13 -33 13 -54 0 -33 -3 -38 -19 -32 -15 5 -21
-1 -26 -26 -6 -27 1 -48 39 -123 26 -50 46 -99 46 -109 0 -10 6 -17 13 -16 23
3 37 -1 37 -11 0 -5 -9 -10 -20 -10 -21 0 -24 -8 -14 -34 3 -8 12 -12 20 -9
10 4 12 0 8 -11 -8 -20 13 -46 36 -46 13 0 17 6 13 20 -3 11 -9 20 -14 20 -11
0 -11 31 0 49 22 34 161 27 161 -9 0 -8 -17 -31 -38 -51 -31 -31 -41 -35 -61
-28 -28 11 -28 11 -31 -16 -4 -35 0 -44 21 -55 15 -8 24 -8 34 0 11 9 22 3 52
-26 21 -20 72 -53 113 -73 73 -35 78 -36 200 -37 94 -1 135 -5 165 -18 38 -16
39 -18 21 -32 -11 -8 -28 -14 -39 -14 -30 0 -127 -30 -127 -40 0 -5 6 -10 13
-13 6 -2 -51 -4 -128 -4 -77 0 -151 4 -164 9 -13 5 -38 9 -55 10 -43 1 -118
-21 -111 -32 4 -6 -4 -10 -17 -10 -13 0 -29 -5 -36 -12 -9 -9 -17 -7 -35 10
-13 12 -30 22 -39 22 -9 0 -27 21 -41 48 -31 59 -52 62 -53 7 0 -22 -6 -50
-12 -61 -6 -12 -8 -25 -4 -29 4 -5 1 -5 -5 -1 -7 4 -13 15 -13 25 0 10 -11 26
-25 35 -27 18 -34 46 -11 46 7 0 19 7 26 15 11 13 7 15 -23 15 -28 0 -35 3
-31 15 8 20 -12 43 -53 60 -18 8 -33 21 -33 29 0 9 -4 16 -10 16 -11 0 -1 32
14 42 6 4 8 10 4 13 -3 4 -16 -3 -28 -15 -12 -12 -22 -20 -23 -18 -27 54 -46
59 -69 19 -14 -26 -14 -32 -2 -48 10 -13 16 -15 21 -6 12 18 58 -20 50 -41 -4
-9 -11 -16 -17 -16 -6 0 -9 4 -6 9 7 10 -17 21 -45 21 -10 0 -19 -7 -19 -15 0
-9 -7 -18 -15 -21 -12 -5 -14 -18 -9 -68 5 -46 3 -64 -7 -73 -12 -9 -14 0 -14
52 0 35 -7 74 -15 89 -11 22 -12 29 -1 35 7 5 11 16 9 26 -3 17 -31 27 -68 24
-8 -1 -40 -1 -70 -1 -47 0 -52 -1 -37 -12 9 -7 17 -17 17 -22 0 -5 11 -22 26
-37 21 -23 22 -28 10 -33 -9 -3 -13 -10 -10 -15 3 -5 -6 -9 -20 -9 -16 0 -26
-6 -26 -14 0 -21 -86 -31 -105 -12 -19 18 -19 35 0 60 8 10 12 23 9 27 -3 5 0
9 6 9 6 0 13 -6 16 -14 3 -8 12 -12 20 -9 8 3 14 0 14 -6 0 -6 -5 -11 -11 -11
-5 0 -7 -5 -3 -12 5 -8 11 -5 17 10 6 12 18 22 29 22 22 0 23 9 3 46 -8 16
-15 38 -15 50 0 27 -10 36 -25 24 -10 -8 -10 -1 -1 30 8 33 8 43 -3 49 -9 6
-10 14 -3 27 11 21 12 25 12 52 0 10 17 45 38 78 57 88 60 110 20 146 -18 16
-41 36 -52 43 -30 22 -10 37 41 29 42 -6 44 -5 35 13 -12 22 -37 36 -107 58
-27 9 -55 21 -62 27 -13 11 -75 7 -107 -7 -14 -6 -17 -5 -12 4 7 11 -33 76
-57 92 -5 4 -4 10 2 13 19 12 1 26 -34 26 -21 0 -35 6 -39 16 -10 27 -7 38 7
25 11 -8 16 -6 24 12 6 12 7 30 4 40 -6 16 -8 16 -26 3 -18 -14 -18 -15 -2
-16 9 0 17 -7 17 -15 0 -13 -4 -14 -20 -5 -15 8 -20 8 -18 -1 2 -6 -4 -13 -12
-14 -8 -2 -23 -6 -32 -10 -12 -5 -18 -3 -18 6 0 7 3 9 7 6 12 -12 52 67 53
104 0 38 -31 89 -55 89 -16 0 -105 91 -123 126 -15 29 -13 66 5 71 6 2 21 -5
32 -16 l21 -21 0 32 c0 24 -10 42 -37 70 -20 21 -40 38 -45 38 -4 0 -12 -18
-18 -39 -7 -25 -18 -42 -31 -46 -27 -9 -35 -34 -43 -131 -7 -75 -6 -82 12 -86
15 -4 19 -15 20 -53 1 -26 -2 -53 -7 -59 -5 -6 -9 -22 -10 -36 -1 -48 -4 -65
-14 -78 -12 -15 -19 -113 -16 -247 1 -49 1 -105 0 -123 -1 -43 17 -78 32 -63
19 19 39 14 28 -7 -27 -51 108 -102 146 -54 11 12 16 14 20 4 2 -7 20 -19 39
-27 26 -11 34 -20 34 -39 0 -40 51 -36 -498 -37 -267 0 -367 3 -378 12 -8 6
-14 26 -14 44 0 28 7 38 49 69 l50 35 -2 84 c-2 79 0 86 32 138 48 77 53 151
11 164 -10 3 -21 13 -24 21 -5 13 3 14 47 10 28 -2 60 -7 69 -11 13 -5 18 -2
18 12 0 10 -6 25 -12 31 -10 10 -5 11 25 7 l37 -6 0 80 c0 44 5 114 11 155 7
55 7 96 -2 148 -6 40 -13 94 -16 120 -3 27 -9 45 -14 42 -5 -3 -9 22 -9 55 0
42 -4 61 -12 61 -9 0 -9 3 1 9 18 12 7 41 -17 41 -10 0 -32 -14 -50 -31 -17
-17 -36 -28 -42 -24 -13 8 -13 25 1 25 5 0 23 12 39 28 21 19 32 40 36 73 6
41 3 48 -22 75 -16 16 -41 55 -57 86 -42 88 -33 142 23 136 20 -3 26 4 37 42
7 25 13 77 12 117 -2 62 -4 72 -22 77 -15 4 -18 10 -13 29 4 17 0 30 -15 43
-12 10 -24 18 -28 16 -3 -1 -6 9 -6 22 -1 15 4 22 12 19 7 -3 13 -11 13 -19 0
-7 11 -16 25 -20 13 -3 24 -9 23 -13 0 -3 0 -13 1 -21 4 -36 31 27 31 71 0 41
-4 50 -29 68 -15 11 -31 18 -35 14 -6 -7 -57 16 -67 31 -4 5 -27 9 -50 10 -40
1 -44 3 -47 28 -4 33 13 68 33 68 8 0 15 -4 15 -10 0 -5 11 -12 25 -16 27 -7
70 20 59 37 -8 14 6 11 21 -5 10 -9 11 -16 3 -24 -17 -17 38 -26 81 -14 23 8
37 8 39 2 6 -17 68 -11 95 10 17 14 27 16 29 8 3 -9 12 -9 36 1 30 13 35 11
72 -14 37 -26 45 -27 110 -22 38 3 79 11 91 17 21 12 67 9 117 -6 18 -5 22 -2
22 15 0 12 4 20 10 16 17 -11 23 -76 10 -118 -10 -35 -14 -39 -24 -25 -7 9
-31 26 -55 38 -39 21 -46 22 -84 10 -23 -8 -54 -20 -69 -27 -35 -17 -71 -96
-64 -138 23 -135 27 -183 23 -272 -4 -84 -2 -101 9 -96 13 5 20 -15 15 -42 -1
-5 5 -3 14 6 13 12 14 21 5 43 -11 30 -13 121 -2 96 4 -8 13 -16 20 -17 19 -4
14 39 -8 67 -11 14 -20 30 -20 35 0 6 10 -4 21 -22 13 -21 26 -30 36 -26 13 5
13 3 1 -16 -10 -17 -10 -23 0 -29 9 -7 8 -21 -8 -67 -11 -32 -20 -67 -20 -77
0 -11 -4 -17 -9 -14 -28 18 -71 -120 -71 -228 0 -98 11 -122 40 -88 10 13 16
30 13 37 -3 8 0 15 7 15 10 0 10 3 0 15 -7 8 -8 15 -3 15 5 0 14 17 19 38 8
32 13 37 34 34 21 -4 22 -2 11 12 -7 9 -21 16 -30 17 -9 0 -11 3 -4 5 7 3 10
11 7 18 -3 8 5 16 22 20 25 7 37 3 40 -12 5 -24 17 -52 23 -52 19 1 53 39 48
53 -3 9 -2 19 3 22 5 3 10 -3 12 -12 6 -25 143 114 181 182 15 28 36 64 47 80
16 26 17 36 7 72 -10 37 -37 69 -37 43 0 -6 -6 -10 -14 -10 -16 0 -28 37 -15
46 5 3 9 0 9 -5 0 -18 16 -12 44 16 14 14 30 23 34 19 4 -4 7 -39 6 -77 0 -38
3 -69 8 -69 4 0 8 4 8 10 0 5 18 21 40 35 22 14 53 43 69 65 25 35 27 44 18
65 -14 29 -22 31 -36 8 -8 -14 -14 -16 -28 -7 -18 11 -20 53 -3 64 13 9 17 35
6 45 -26 26 -62 45 -83 45 -34 0 -28 27 8 34 47 9 66 7 81 -7 25 -25 52 -33
121 -36 106 -4 84 29 -36 53 -55 11 -62 15 -62 37 0 22 7 25 78 40 57 11 90
13 120 7 98 -21 91 -22 110 17 25 52 22 62 -13 57 -49 -7 -34 27 19 43 20 6
23 4 18 -9 -11 -27 11 -18 25 12 7 15 23 28 34 30 12 2 39 20 60 41 22 21 41
39 43 40 2 0 0 -15 -3 -34z m161 -47 c-3 -8 -6 -5 -6 6 -1 11 2 17 5 13 3 -3
4 -12 1 -19z m93 -39 c0 -4 -4 -11 -10 -14 -6 -4 -7 1 -3 11 5 14 2 16 -20 12
-31 -6 -36 6 -9 21 13 8 20 6 30 -6 6 -9 12 -20 12 -24z m-1790 12 c0 -5 -7
-11 -15 -15 -9 -3 -15 0 -15 9 0 8 7 15 15 15 8 0 15 -4 15 -9z m1740 -51 c0
-5 -5 -10 -11 -10 -5 0 -7 5 -4 10 3 6 8 10 11 10 2 0 4 -4 4 -10z m-1710
-199 c0 -6 -4 -13 -10 -16 -5 -3 -10 1 -10 9 0 9 5 16 10 16 6 0 10 -4 10 -9z
m-80 -10 c0 -6 -4 -13 -10 -16 -5 -3 -10 1 -10 9 0 9 5 16 10 16 6 0 10 -4 10
-9z m904 -16 c3 -8 1 -15 -4 -15 -6 0 -10 7 -10 15 0 8 2 15 4 15 2 0 6 -7 10
-15z m-831 -12 c-7 -2 -19 -2 -25 0 -7 3 -2 5 12 5 14 0 19 -2 13 -5z m968
-40 c-12 -20 -14 -14 -5 12 4 9 9 14 11 11 3 -2 0 -13 -6 -23z m-1081 -147 c0
-3 -4 -8 -10 -11 -5 -3 -10 -1 -10 4 0 6 5 11 10 11 6 0 10 -2 10 -4z m610 -6
c12 -8 11 -10 -7 -10 -13 0 -23 5 -23 10 0 13 11 13 30 0z m210 -50 c0 -16 -5
-30 -11 -30 -7 0 -8 -16 -3 -47 6 -43 5 -46 -8 -35 -24 20 -28 63 -10 104 21
45 32 48 32 8z m-711 -16 c1 11 4 17 7 13 4 -3 4 -14 0 -23 -5 -13 -9 -14 -21
-4 -8 7 -12 17 -8 23 4 6 9 3 14 -9 7 -19 8 -19 8 0z m1266 -14 c-3 -5 -12
-10 -18 -10 -7 0 -6 4 3 10 19 12 23 12 15 0z m-716 -51 c-9 -17 -13 -19 -20
-8 -7 12 3 22 29 28 1 1 -2 -9 -9 -20z m-574 -29 c-3 -5 -10 -10 -16 -10 -5 0
-9 5 -9 10 0 6 7 10 16 10 8 0 12 -4 9 -10z m585 -10 c0 -5 -4 -10 -10 -10 -5
0 -10 5 -10 10 0 6 5 10 10 10 6 0 10 -4 10 -10z m190 -104 c0 -3 -4 -8 -10
-11 -5 -3 -10 -1 -10 4 0 6 5 11 10 11 6 0 10 -2 10 -4z m190 -86 c0 -5 -8
-10 -17 -10 -15 0 -16 2 -3 10 19 12 20 12 20 0z m-960 -85 c0 -8 -2 -15 -4
-15 -2 0 -6 7 -10 15 -3 8 -1 15 4 15 6 0 10 -7 10 -15z m-40 -15 c0 -5 -2
-10 -4 -10 -3 0 -8 5 -11 10 -3 6 -1 10 4 10 6 0 11 -4 11 -10z m95 -150 c-4
-6 4 -19 17 -30 26 -22 21 -25 -16 -11 -18 8 -23 15 -19 30 3 12 10 21 15 21
5 0 6 -5 3 -10z m605 -487 c0 -5 -4 -14 -9 -21 -7 -11 -9 -11 -14 1 -3 8 -3
18 0 21 9 8 23 7 23 -1z m-170 -153 c0 -5 -5 -10 -11 -10 -5 0 -7 5 -4 10 3 6
8 10 11 10 2 0 4 -4 4 -10z m15 -100 c3 -5 2 -10 -4 -10 -5 0 -13 5 -16 10 -3
6 -2 10 4 10 5 0 13 -4 16 -10z m240 -79 c3 -5 1 -12 -5 -16 -5 -3 -10 1 -10
9 0 18 6 21 15 7z m-175 -121 c0 -5 -2 -10 -4 -10 -3 0 -8 5 -11 10 -3 6 -1
10 4 10 6 0 11 -4 11 -10z m495 0 c-3 -5 -13 -10 -21 -10 -8 0 -14 5 -14 10 0
6 9 10 21 10 11 0 17 -4 14 -10z m669 -16 c10 -25 -1 -29 -14 -5 -6 12 -7 21
-1 21 5 0 12 -7 15 -16z m99 -21 c19 -38 21 -98 4 -112 -12 -9 -16 -1 -25 43
-9 46 -7 96 4 96 2 0 10 -12 17 -27z m-893 -3 c0 -5 -2 -10 -4 -10 -3 0 -8 5
-11 10 -3 6 -1 10 4 10 6 0 11 -4 11 -10z m950 -24 c0 -3 -4 -8 -10 -11 -5 -3
-10 -1 -10 4 0 6 5 11 10 11 6 0 10 -2 10 -4z m-40 -120 c0 -2 -8 -10 -17 -17
-16 -13 -17 -12 -4 4 13 16 21 21 21 13z m295 -6 c3 -5 1 -10 -4 -10 -6 0 -11
5 -11 10 0 6 2 10 4 10 3 0 8 -4 11 -10z m-2265 -170 c0 -5 -2 -10 -4 -10 -3
0 -8 5 -11 10 -3 6 -1 10 4 10 6 0 11 -4 11 -10z m460 -6 c0 -8 -5 -12 -10 -9
-6 4 -8 11 -5 16 9 14 15 11 15 -7z m705 -4 c-3 -5 -11 -10 -16 -10 -6 0 -7 5
-4 10 3 6 11 10 16 10 6 0 7 -4 4 -10z m-280 -19 c3 -5 1 -12 -5 -16 -5 -3
-10 1 -10 9 0 18 6 21 15 7z m148 -63 c-2 -4 -10 -5 -18 -1 -8 3 -15 0 -15 -6
0 -6 -7 -8 -15 -5 -22 9 -18 34 4 34 11 0 23 5 27 12 5 8 10 6 14 -8 4 -10 6
-22 3 -26z m87 18 c0 -3 -4 -8 -10 -11 -5 -3 -10 -1 -10 4 0 6 5 11 10 11 6 0
10 -2 10 -4z m11 -29 c-10 -9 -11 -8 -5 6 3 10 9 15 12 12 3 -3 0 -11 -7 -18z
m-61 -17 c9 -17 8 -20 -9 -20 -14 0 -18 5 -14 20 3 11 7 20 9 20 2 0 8 -9 14
-20z m28 -55 c-3 -3 -9 2 -12 12 -6 14 -5 15 5 6 7 -7 10 -15 7 -18z m262 -31
c0 -8 -5 -12 -10 -9 -6 4 -8 11 -5 16 9 14 15 11 15 -7z m300 -119 c7 -8 9
-22 6 -32 -4 -9 -2 -19 4 -23 7 -5 6 -11 -4 -19 -13 -11 -17 -9 -27 15 -16 40
-23 118 -14 151 8 25 9 23 16 -25 4 -29 12 -59 19 -67z"/>
<path d="M2558 3153 c7 -3 16 -2 19 1 4 3 -2 6 -13 5 -11 0 -14 -3 -6 -6z"/>
<path d="M1238 3079 c-2 -6 -20 -11 -39 -11 -33 0 -35 -2 -31 -25 4 -21 6 -23
14 -9 12 21 22 20 44 -1 13 -13 19 -14 22 -5 5 15 36 16 63 2 30 -16 23 -30
-16 -30 -39 0 -43 -10 -20 -54 10 -19 12 -33 6 -39 -5 -5 -7 -25 -4 -43 5 -27
2 -34 -11 -34 -11 0 -14 -4 -9 -12 4 -7 8 -31 9 -53 1 -22 7 -41 13 -43 18 -6
12 -32 -7 -32 -38 0 -59 -47 -66 -142 -1 -21 1 -43 6 -50 6 -10 8 -10 8 1 0 8
3 12 6 9 3 -4 -2 -17 -11 -31 -10 -15 -12 -28 -6 -31 5 -4 9 -20 9 -37 -1 -20
5 -35 15 -41 10 -5 17 -18 17 -29 0 -18 4 -17 54 11 40 23 55 27 59 18 3 -7 6
3 6 22 1 56 -18 111 -51 140 -34 31 -30 55 8 46 21 -6 24 -3 24 24 0 27 3 30
21 25 18 -6 20 -4 14 17 -19 61 -51 101 -64 79 -12 -18 -43 26 -33 47 5 9 8
26 7 38 -1 19 3 21 42 16 43 -5 43 -4 43 27 0 17 -4 31 -9 31 -6 0 -8 -9 -6
-19 2 -11 -3 -22 -12 -25 -22 -9 -27 -1 -14 22 6 12 11 36 11 56 0 32 19 64
21 34 1 -17 37 62 38 84 1 19 -31 32 -73 29 -16 -1 -39 5 -52 14 -28 18 -41
19 -46 4z m62 -99 c0 -5 -5 -10 -11 -10 -5 0 -7 5 -4 10 3 6 8 10 11 10 2 0 4
-4 4 -10z m5 -610 c-3 -5 -10 -10 -16 -10 -5 0 -9 5 -9 10 0 6 7 10 16 10 8 0
12 -4 9 -10z"/>
<path d="M2541 3075 c-32 -11 -33 -12 -10 -18 17 -5 30 0 44 13 22 22 16 23
-34 5z"/>
<path d="M2198 3068 c8 -8 20 -8 44 -1 l33 11 -44 1 c-34 1 -42 -2 -33 -11z"/>
<path d="M2300 3049 c0 -5 5 -7 10 -4 6 3 10 8 10 11 0 2 -4 4 -10 4 -5 0 -10
-5 -10 -11z"/>
<path d="M1119 2692 c-3 -20 -2 -29 4 -23 5 5 7 19 5 32 -3 20 -5 19 -9 -9z"/>
<path d="M1985 2634 c-15 -16 -35 -38 -46 -49 -24 -26 -24 -35 -1 -35 22 0 43
22 67 68 22 44 13 51 -20 16z"/>
<path d="M2012 2386 c1 -10 8 -17 13 -17 15 1 12 24 -3 29 -9 3 -13 -2 -10
-12z"/>
<path d="M1766 2288 c-11 -16 -12 -25 -5 -35 15 -17 42 9 33 31 -3 9 -2 16 4
16 6 0 13 -6 15 -12 3 -8 6 -6 6 5 1 25 -35 22 -53 -5z"/>
<path d="M1536 2267 c3 -10 9 -15 12 -12 3 3 0 11 -7 18 -10 9 -11 8 -5 -6z"/>
<path d="M1624 2223 c0 -11 -6 -17 -16 -17 -10 1 -18 -2 -18 -7 0 -5 5 -9 11
-9 13 0 -10 -24 -31 -33 -12 -4 -12 -6 -1 -6 11 -1 11 -4 1 -16 -20 -24 3 -43
25 -21 9 9 13 16 9 16 -4 0 0 8 9 18 19 21 34 92 19 92 -5 0 -9 -8 -8 -17z"/>
<path d="M1330 2210 c0 -5 -7 -10 -15 -10 -8 0 -20 -10 -26 -22 -6 -13 -20
-33 -31 -45 -12 -12 -17 -27 -13 -34 6 -8 -1 -10 -24 -7 -28 4 -31 2 -31 -23
0 -15 5 -31 10 -34 6 -3 10 -21 10 -38 0 -18 4 -47 9 -64 6 -22 6 -32 -1 -30
-6 1 -12 -6 -13 -15 -2 -11 3 -18 12 -18 14 0 14 -2 0 -24 -10 -15 -14 -36
-10 -63 3 -26 0 -50 -11 -71 -10 -19 -16 -56 -16 -93 l0 -62 53 45 c77 67 84
84 58 138 -26 54 -26 57 -2 70 14 7 28 7 47 0 17 -7 31 -7 37 -1 8 8 -20 24
-46 26 -4 0 -14 13 -22 28 -15 29 -11 57 8 57 6 0 1 10 -11 23 -18 19 -19 24
-6 41 7 11 24 20 36 21 15 1 22 8 20 19 -2 10 4 16 16 16 23 0 37 29 22 44 -5
5 -10 27 -10 48 0 27 -5 40 -20 48 -11 6 -17 16 -14 25 4 8 1 15 -5 15 -6 0
-11 -4 -11 -10z m-16 -76 c22 -9 10 -23 -14 -17 -11 3 -17 9 -14 14 6 11 8 11
28 3z m-87 -460 c-3 -3 -12 -4 -19 -1 -8 3 -5 6 6 6 11 1 17 -2 13 -5z"/>
<path d="M1120 2178 c0 -15 5 -30 10 -33 13 -8 13 25 0 45 -8 12 -10 9 -10
-12z"/>
<path d="M1950 2180 c6 -11 12 -20 14 -20 2 0 2 9 -1 20 -3 11 -9 20 -15 20
-5 0 -4 -9 2 -20z"/>
<path d="M1577 2074 c-3 -4 1 -13 9 -21 8 -9 16 -14 17 -12 2 2 9 12 16 22 12
15 11 17 -11 17 -14 0 -27 -3 -31 -6z"/>
<path d="M1637 2025 c-2 -15 0 -24 6 -22 12 4 18 47 6 47 -3 0 -9 -11 -12 -25z"/>
<path d="M1800 2031 c0 -38 -76 -55 -98 -21 -16 26 -30 25 -34 -2 -2 -16 -9
-22 -23 -21 -16 1 -14 -4 13 -28 30 -27 38 -29 78 -23 40 6 46 4 51 -14 2 -11
13 -22 23 -25 13 -3 17 -11 14 -24 -3 -10 4 -29 15 -42 12 -13 21 -37 21 -53
0 -22 5 -28 21 -28 11 0 17 -4 14 -10 -6 -9 0 -11 44 -14 8 -1 16 -7 19 -14 2
-7 -2 -10 -12 -6 -9 3 -16 1 -16 -5 0 -6 5 -11 11 -11 7 0 9 -10 7 -25 -4 -20
-1 -25 14 -25 10 0 18 -6 17 -12 -4 -30 2 -40 19 -34 14 5 14 4 -2 -9 -11 -8
-15 -15 -8 -15 6 0 9 -6 6 -13 -2 -7 7 -26 22 -43 17 -18 29 -24 32 -16 2 6
10 12 18 12 11 0 12 4 4 19 -5 11 -10 28 -10 38 0 14 5 12 25 -11 14 -16 25
-33 25 -38 0 -5 8 -21 17 -35 10 -14 16 -39 14 -55 -1 -16 2 -28 9 -28 8 0 10
12 7 35 -3 19 -1 35 4 35 6 0 5 8 -1 20 -6 10 -9 25 -8 32 2 7 -2 12 -9 11 -7
-2 -10 3 -7 11 3 8 -7 18 -25 26 -19 7 -28 17 -24 26 3 8 0 14 -7 14 -10 0
-10 3 0 14 16 20 9 29 -87 130 -46 48 -83 93 -83 100 0 7 -16 30 -35 50 -19
21 -36 48 -36 62 -2 43 -5 49 -18 46 -7 -1 -10 2 -7 7 4 5 2 12 -4 16 -5 3
-10 2 -10 -4z m0 -61 c0 -5 -4 -10 -10 -10 -5 0 -10 5 -10 10 0 6 5 10 10 10
6 0 10 -4 10 -10z m250 -304 c0 -3 -4 -8 -10 -11 -5 -3 -10 -1 -10 4 0 6 5 11
10 11 6 0 10 -2 10 -4z"/>
<path d="M1335 1976 c-16 -11 -17 -17 -7 -29 18 -21 54 -10 50 16 -4 26 -19
31 -43 13z"/>
<path d="M2210 1710 c8 -5 24 -10 35 -10 17 0 17 2 5 10 -8 5 -24 10 -35 10
-17 0 -17 -2 -5 -10z"/>
<path d="M2296 1685 c-19 -15 -19 -15 5 -15 13 1 38 7 54 15 l30 13 -35 1
c-19 0 -44 -6 -54 -14z"/>
<path d="M2360 1626 c0 -8 5 -18 10 -21 6 -3 10 3 10 14 0 12 -4 21 -10 21 -5
0 -10 -6 -10 -14z"/>
<path d="M2395 1520 c3 -5 8 -10 11 -10 2 0 4 5 4 10 0 6 -5 10 -11 10 -5 0
-7 -4 -4 -10z"/>
<path d="M1897 1506 c-4 -10 -7 -28 -7 -41 0 -13 -6 -25 -12 -28 -9 -3 -5 -13
12 -31 22 -25 29 -27 75 -21 35 4 46 3 35 -4 -22 -15 -1 -32 46 -38 l39 -5
-19 21 c-11 11 -24 21 -31 21 -6 0 -18 11 -25 25 -12 23 -18 24 -69 20 -31 -2
-46 -2 -34 1 31 7 48 30 33 46 -6 7 -17 22 -24 32 -12 17 -13 18 -19 2z"/>
<path d="M2406 1464 c-10 -26 -7 -41 14 -65 l19 -24 -3 33 c-4 37 -3 38 18 16
14 -13 16 -13 16 0 0 8 -13 24 -29 35 -25 18 -30 19 -35 5z"/>
<path d="M2491 1374 c0 -11 3 -14 6 -6 3 7 2 16 -1 19 -3 4 -6 -2 -5 -13z"/>
<path d="M2480 1326 c0 -9 7 -12 20 -9 11 3 20 9 20 14 0 5 -9 9 -20 9 -11 0
-20 -6 -20 -14z"/>
<path d="M2692 1300 c0 -14 2 -19 5 -12 2 6 2 18 0 25 -3 6 -5 1 -5 -13z"/>
<path d="M2510 1292 c0 -12 19 -26 26 -19 2 2 -2 10 -11 17 -9 8 -15 8 -15 2z"/>
<path d="M2364 1262 c-9 -5 -8 -11 2 -20 9 -8 14 -9 14 -2 0 6 5 8 11 4 7 -4
10 -1 7 6 -5 17 -20 22 -34 12z"/>
<path d="M1032 1223 c2 -9 8 -18 15 -20 7 -3 9 3 6 16 -6 25 -26 28 -21 4z"/>
<path d="M2429 1233 c-2 -18 3 -79 8 -86 3 -4 10 -3 17 2 18 15 29 1 14 -16
-9 -11 -9 -16 3 -23 18 -12 45 58 29 74 -8 8 -14 6 -21 -4 -8 -12 -9 -11 -5 5
3 14 -3 26 -19 38 -14 10 -25 14 -26 10z"/>
<path d="M2360 1215 c0 -5 5 -17 10 -25 5 -8 10 -10 10 -5 0 6 -5 17 -10 25
-5 8 -10 11 -10 5z"/>
<path d="M2640 1172 c0 -7 4 -20 9 -30 5 -9 13 -26 17 -37 6 -17 8 -17 11 -4
2 9 -5 32 -16 50 -12 19 -21 28 -21 21z"/>
<path d="M2517 1144 c-4 -4 -7 -16 -7 -26 0 -15 5 -18 20 -13 14 5 20 2 20 -9
0 -9 5 -16 10 -16 16 0 12 17 -13 45 -12 15 -26 23 -30 19z"/>
<path d="M1067 993 c-4 -3 -7 -11 -7 -17 0 -6 5 -5 12 2 6 6 9 14 7 17 -3 3
-9 2 -12 -2z"/>
<path d="M1310 992 c-17 -6 -44 -31 -39 -36 12 -10 99 -14 104 -5 5 7 12 6 21
-2 8 -6 18 -9 22 -5 14 14 -82 57 -108 48z"/>
<path d="M2192 955 c11 -24 28 -34 28 -16 0 21 -13 41 -26 41 -11 0 -11 -5 -2
-25z"/>
<path d="M2230 906 c0 -22 11 -46 21 -46 5 0 9 14 9 30 0 20 -5 30 -15 30 -8
0 -15 -6 -15 -14z"/>
<path d="M2255 830 c3 -5 8 -10 11 -10 2 0 4 5 4 10 0 6 -5 10 -11 10 -5 0 -7
-4 -4 -10z"/>
<path d="M2110 801 c0 -6 4 -12 8 -15 5 -3 9 1 9 9 0 8 -4 15 -9 15 -4 0 -8
-4 -8 -9z"/>
<path d="M2570 748 c0 -17 27 -44 36 -35 3 3 -3 16 -15 28 -16 18 -21 19 -21
7z"/>
<path d="M3006 641 c19 -33 33 -42 87 -55 31 -7 35 4 11 29 -11 10 -25 14 -40
11 -13 -4 -24 -3 -24 1 0 5 -12 17 -27 27 l-26 19 19 -32z"/>
<path d="M2030 621 c0 -13 29 -35 37 -27 3 3 1 6 -5 6 -6 0 -9 7 -6 15 4 9 0
15 -10 15 -9 0 -16 -4 -16 -9z"/>
<path d="M2775 559 c-8 -23 -7 -24 21 -33 13 -4 28 1 44 16 22 21 22 22 4 29
-36 14 -62 10 -69 -12z"/>
</g>
</svg>
